<mxfile host="app.diagrams.net" modified="2024-06-19T08:38:27.572Z" agent="Mozilla/5.0 (Macintosh; Intel Mac OS X 10.15; rv:126.0) Gecko/20100101 Firefox/126.0" etag="XEgrl6nMrRZBIqwsV8GA" version="24.2.3" type="device">
  <diagram name="Page-1" id="GCnkC4KoJbqLiDJJ_nu2">
    <mxGraphModel dx="1997" dy="744" grid="1" gridSize="10" guides="1" tooltips="1" connect="1" arrows="1" fold="1" page="1" pageScale="1" pageWidth="827" pageHeight="1169" math="0" shadow="0">
      <root>
        <mxCell id="0" />
        <mxCell id="1" parent="0" />
        <mxCell id="RKTFT_MF-WC7LOVPMdj9-1" value="Pytorch" style="rounded=0;whiteSpace=wrap;html=1;" vertex="1" parent="1">
          <mxGeometry x="-10" y="60" width="100" height="50" as="geometry" />
        </mxCell>
        <mxCell id="RKTFT_MF-WC7LOVPMdj9-2" value="" style="endArrow=classic;html=1;rounded=0;exitX=0.5;exitY=1;exitDx=0;exitDy=0;entryX=0.5;entryY=0;entryDx=0;entryDy=0;" edge="1" parent="1" source="RKTFT_MF-WC7LOVPMdj9-1" target="RKTFT_MF-WC7LOVPMdj9-4">
          <mxGeometry width="50" height="50" relative="1" as="geometry">
            <mxPoint x="-90" y="200" as="sourcePoint" />
            <mxPoint y="185" as="targetPoint" />
          </mxGeometry>
        </mxCell>
        <mxCell id="RKTFT_MF-WC7LOVPMdj9-3" value="Trained network" style="text;html=1;align=center;verticalAlign=middle;whiteSpace=wrap;rounded=0;" vertex="1" parent="1">
          <mxGeometry x="-20" y="120" width="60" height="30" as="geometry" />
        </mxCell>
        <mxCell id="RKTFT_MF-WC7LOVPMdj9-4" value="&lt;div&gt;ONNX&lt;/div&gt;&lt;div&gt;Intermediate&lt;/div&gt;&lt;div&gt;format&lt;br&gt;&lt;/div&gt;" style="rounded=0;whiteSpace=wrap;html=1;" vertex="1" parent="1">
          <mxGeometry x="-10" y="160" width="100" height="50" as="geometry" />
        </mxCell>
        <mxCell id="RKTFT_MF-WC7LOVPMdj9-6" value="&lt;div&gt;TVM custom code generation&lt;br&gt;&lt;/div&gt;" style="rounded=0;whiteSpace=wrap;html=1;" vertex="1" parent="1">
          <mxGeometry x="130" y="320" width="100" height="50" as="geometry" />
        </mxCell>
        <mxCell id="RKTFT_MF-WC7LOVPMdj9-12" value="" style="rounded=0;whiteSpace=wrap;html=1;fillColor=#d5e8d4;strokeColor=#82b366;" vertex="1" parent="1">
          <mxGeometry x="310" y="100" width="500" height="410" as="geometry" />
        </mxCell>
        <mxCell id="RKTFT_MF-WC7LOVPMdj9-13" value="Headsail" style="text;html=1;align=center;verticalAlign=middle;whiteSpace=wrap;rounded=0;movable=1;resizable=1;rotatable=1;deletable=1;editable=1;locked=0;connectable=1;" vertex="1" parent="1">
          <mxGeometry x="310" y="100" width="60" height="30" as="geometry" />
        </mxCell>
        <mxCell id="RKTFT_MF-WC7LOVPMdj9-14" value="&lt;div&gt;&lt;br&gt;&lt;/div&gt;" style="rounded=0;whiteSpace=wrap;html=1;fillColor=#fff2cc;strokeColor=#d6b656;" vertex="1" parent="1">
          <mxGeometry x="500" y="330" width="290" height="160" as="geometry" />
        </mxCell>
        <mxCell id="RKTFT_MF-WC7LOVPMdj9-15" value="" style="rounded=0;whiteSpace=wrap;html=1;fillColor=#fff2cc;strokeColor=#d6b656;" vertex="1" parent="1">
          <mxGeometry x="330" y="130" width="140" height="370" as="geometry" />
        </mxCell>
        <mxCell id="RKTFT_MF-WC7LOVPMdj9-16" value="HPC Bootram" style="text;html=1;align=center;verticalAlign=middle;whiteSpace=wrap;rounded=0;" vertex="1" parent="1">
          <mxGeometry x="330" y="130" width="100" height="30" as="geometry" />
        </mxCell>
        <mxCell id="RKTFT_MF-WC7LOVPMdj9-17" value="&lt;div&gt;DLA&lt;/div&gt;Driver" style="rounded=0;whiteSpace=wrap;html=1;" vertex="1" parent="1">
          <mxGeometry x="350" y="370" width="100" height="50" as="geometry" />
        </mxCell>
        <mxCell id="RKTFT_MF-WC7LOVPMdj9-19" value="uTVM runtime" style="rounded=0;whiteSpace=wrap;html=1;" vertex="1" parent="1">
          <mxGeometry x="350" y="210" width="100" height="50" as="geometry" />
        </mxCell>
        <mxCell id="RKTFT_MF-WC7LOVPMdj9-20" value="Use-case application" style="rounded=0;whiteSpace=wrap;html=1;" vertex="1" parent="1">
          <mxGeometry x="350" y="160" width="100" height="50" as="geometry" />
        </mxCell>
        <mxCell id="RKTFT_MF-WC7LOVPMdj9-22" value="" style="endArrow=classic;html=1;rounded=0;exitX=0;exitY=0.5;exitDx=0;exitDy=0;entryX=0.5;entryY=1;entryDx=0;entryDy=0;" edge="1" parent="1" source="RKTFT_MF-WC7LOVPMdj9-17" target="RKTFT_MF-WC7LOVPMdj9-6">
          <mxGeometry width="50" height="50" relative="1" as="geometry">
            <mxPoint x="560" y="460" as="sourcePoint" />
            <mxPoint x="420" y="290" as="targetPoint" />
            <Array as="points">
              <mxPoint x="180" y="395" />
            </Array>
          </mxGeometry>
        </mxCell>
        <mxCell id="RKTFT_MF-WC7LOVPMdj9-23" value="TVM codegen replaces default CNN operation implementations in the UMA graph with DLA Driver provided versions" style="text;html=1;align=center;verticalAlign=middle;whiteSpace=wrap;rounded=0;" vertex="1" parent="1">
          <mxGeometry x="160" y="390" width="140" height="110" as="geometry" />
        </mxCell>
        <mxCell id="RKTFT_MF-WC7LOVPMdj9-25" value="" style="endArrow=classic;html=1;rounded=0;entryX=0.5;entryY=0;entryDx=0;entryDy=0;exitX=0.5;exitY=1;exitDx=0;exitDy=0;startArrow=classic;startFill=1;" edge="1" parent="1" source="RKTFT_MF-WC7LOVPMdj9-19" target="RKTFT_MF-WC7LOVPMdj9-17">
          <mxGeometry width="50" height="50" relative="1" as="geometry">
            <mxPoint x="440" y="320" as="sourcePoint" />
            <mxPoint x="490" y="270" as="targetPoint" />
          </mxGeometry>
        </mxCell>
        <mxCell id="RKTFT_MF-WC7LOVPMdj9-28" value="&lt;div&gt;Headsail specific uTVM runtime library&lt;br&gt;&lt;/div&gt;" style="rounded=0;whiteSpace=wrap;html=1;" vertex="1" parent="1">
          <mxGeometry x="130" y="240" width="100" height="50" as="geometry" />
        </mxCell>
        <mxCell id="RKTFT_MF-WC7LOVPMdj9-29" value="" style="endArrow=classic;html=1;rounded=0;exitX=0.5;exitY=0;exitDx=0;exitDy=0;" edge="1" parent="1" source="RKTFT_MF-WC7LOVPMdj9-6" target="RKTFT_MF-WC7LOVPMdj9-28">
          <mxGeometry width="50" height="50" relative="1" as="geometry">
            <mxPoint x="280" y="310" as="sourcePoint" />
            <mxPoint x="330" y="260" as="targetPoint" />
          </mxGeometry>
        </mxCell>
        <mxCell id="RKTFT_MF-WC7LOVPMdj9-31" value="riscv64-unknon-none-efl-gcc" style="rounded=0;whiteSpace=wrap;html=1;" vertex="1" parent="1">
          <mxGeometry x="130" y="160" width="100" height="50" as="geometry" />
        </mxCell>
        <mxCell id="RKTFT_MF-WC7LOVPMdj9-32" value="" style="endArrow=classic;html=1;rounded=0;exitX=0.5;exitY=0;exitDx=0;exitDy=0;entryX=0.5;entryY=1;entryDx=0;entryDy=0;" edge="1" parent="1" source="RKTFT_MF-WC7LOVPMdj9-28" target="RKTFT_MF-WC7LOVPMdj9-31">
          <mxGeometry width="50" height="50" relative="1" as="geometry">
            <mxPoint x="280" y="310" as="sourcePoint" />
            <mxPoint x="330" y="260" as="targetPoint" />
          </mxGeometry>
        </mxCell>
        <mxCell id="RKTFT_MF-WC7LOVPMdj9-34" value="Headsail-newlib" style="rounded=0;whiteSpace=wrap;html=1;" vertex="1" parent="1">
          <mxGeometry x="130" y="60" width="100" height="50" as="geometry" />
        </mxCell>
        <mxCell id="RKTFT_MF-WC7LOVPMdj9-35" value="" style="endArrow=classic;html=1;rounded=0;exitX=0.5;exitY=1;exitDx=0;exitDy=0;entryX=0.5;entryY=0;entryDx=0;entryDy=0;" edge="1" parent="1" source="RKTFT_MF-WC7LOVPMdj9-34" target="RKTFT_MF-WC7LOVPMdj9-31">
          <mxGeometry width="50" height="50" relative="1" as="geometry">
            <mxPoint x="130" y="310" as="sourcePoint" />
            <mxPoint x="180" y="150" as="targetPoint" />
          </mxGeometry>
        </mxCell>
        <mxCell id="RKTFT_MF-WC7LOVPMdj9-36" value="" style="endArrow=classic;html=1;rounded=0;exitX=0.5;exitY=1;exitDx=0;exitDy=0;entryX=0;entryY=0.5;entryDx=0;entryDy=0;" edge="1" parent="1" source="RKTFT_MF-WC7LOVPMdj9-4" target="RKTFT_MF-WC7LOVPMdj9-28">
          <mxGeometry width="50" height="50" relative="1" as="geometry">
            <mxPoint x="170" y="290" as="sourcePoint" />
            <mxPoint x="220" y="240" as="targetPoint" />
            <Array as="points">
              <mxPoint x="40" y="265" />
            </Array>
          </mxGeometry>
        </mxCell>
        <mxCell id="RKTFT_MF-WC7LOVPMdj9-38" value="" style="rounded=0;whiteSpace=wrap;html=1;fillColor=#fff2cc;strokeColor=#d6b656;" vertex="1" parent="1">
          <mxGeometry x="500" y="130" width="290" height="160" as="geometry" />
        </mxCell>
        <mxCell id="RKTFT_MF-WC7LOVPMdj9-39" value="SDRAM" style="text;html=1;align=center;verticalAlign=middle;whiteSpace=wrap;rounded=0;" vertex="1" parent="1">
          <mxGeometry x="500" y="130" width="60" height="30" as="geometry" />
        </mxCell>
        <mxCell id="RKTFT_MF-WC7LOVPMdj9-41" value="DLA" style="text;html=1;align=center;verticalAlign=middle;whiteSpace=wrap;rounded=0;" vertex="1" parent="1">
          <mxGeometry x="490" y="325" width="60" height="30" as="geometry" />
        </mxCell>
        <mxCell id="RKTFT_MF-WC7LOVPMdj9-42" value="Conv2d" style="rounded=0;whiteSpace=wrap;html=1;" vertex="1" parent="1">
          <mxGeometry x="520" y="355" width="80" height="80" as="geometry" />
        </mxCell>
        <mxCell id="RKTFT_MF-WC7LOVPMdj9-43" value="ReLU" style="rounded=0;whiteSpace=wrap;html=1;" vertex="1" parent="1">
          <mxGeometry x="630" y="355" width="50" height="80" as="geometry" />
        </mxCell>
        <mxCell id="RKTFT_MF-WC7LOVPMdj9-44" value="Bias" style="rounded=0;whiteSpace=wrap;html=1;" vertex="1" parent="1">
          <mxGeometry x="710" y="355" width="50" height="80" as="geometry" />
        </mxCell>
        <mxCell id="RKTFT_MF-WC7LOVPMdj9-45" value="" style="endArrow=classic;html=1;rounded=0;entryX=0;entryY=0.5;entryDx=0;entryDy=0;exitX=1;exitY=0.5;exitDx=0;exitDy=0;" edge="1" parent="1" source="RKTFT_MF-WC7LOVPMdj9-17" target="RKTFT_MF-WC7LOVPMdj9-42">
          <mxGeometry width="50" height="50" relative="1" as="geometry">
            <mxPoint x="450" y="420" as="sourcePoint" />
            <mxPoint x="500" y="370" as="targetPoint" />
          </mxGeometry>
        </mxCell>
        <mxCell id="RKTFT_MF-WC7LOVPMdj9-46" value="" style="endArrow=classic;html=1;rounded=0;entryX=0;entryY=0.5;entryDx=0;entryDy=0;exitX=1;exitY=0.5;exitDx=0;exitDy=0;" edge="1" parent="1" source="RKTFT_MF-WC7LOVPMdj9-42" target="RKTFT_MF-WC7LOVPMdj9-43">
          <mxGeometry width="50" height="50" relative="1" as="geometry">
            <mxPoint x="380" y="350" as="sourcePoint" />
            <mxPoint x="430" y="300" as="targetPoint" />
          </mxGeometry>
        </mxCell>
        <mxCell id="RKTFT_MF-WC7LOVPMdj9-47" value="" style="endArrow=classic;html=1;rounded=0;entryX=0;entryY=0.5;entryDx=0;entryDy=0;exitX=1;exitY=0.5;exitDx=0;exitDy=0;" edge="1" parent="1" source="RKTFT_MF-WC7LOVPMdj9-43" target="RKTFT_MF-WC7LOVPMdj9-44">
          <mxGeometry width="50" height="50" relative="1" as="geometry">
            <mxPoint x="380" y="350" as="sourcePoint" />
            <mxPoint x="430" y="300" as="targetPoint" />
          </mxGeometry>
        </mxCell>
        <mxCell id="RKTFT_MF-WC7LOVPMdj9-48" value="" style="endArrow=classic;html=1;rounded=0;entryX=0.5;entryY=1;entryDx=0;entryDy=0;" edge="1" parent="1" target="RKTFT_MF-WC7LOVPMdj9-17">
          <mxGeometry width="50" height="50" relative="1" as="geometry">
            <mxPoint x="400" y="460" as="sourcePoint" />
            <mxPoint x="420" y="430" as="targetPoint" />
          </mxGeometry>
        </mxCell>
        <mxCell id="RKTFT_MF-WC7LOVPMdj9-50" value="" style="endArrow=none;html=1;rounded=0;entryX=0.5;entryY=1;entryDx=0;entryDy=0;" edge="1" parent="1" target="RKTFT_MF-WC7LOVPMdj9-42">
          <mxGeometry width="50" height="50" relative="1" as="geometry">
            <mxPoint x="560" y="460" as="sourcePoint" />
            <mxPoint x="430" y="300" as="targetPoint" />
          </mxGeometry>
        </mxCell>
        <mxCell id="RKTFT_MF-WC7LOVPMdj9-51" value="" style="endArrow=none;html=1;rounded=0;entryX=0.5;entryY=1;entryDx=0;entryDy=0;" edge="1" parent="1">
          <mxGeometry width="50" height="50" relative="1" as="geometry">
            <mxPoint x="654.6" y="460" as="sourcePoint" />
            <mxPoint x="654.6" y="420" as="targetPoint" />
          </mxGeometry>
        </mxCell>
        <mxCell id="RKTFT_MF-WC7LOVPMdj9-52" value="" style="endArrow=none;html=1;rounded=0;entryX=0.5;entryY=1;entryDx=0;entryDy=0;" edge="1" parent="1" target="RKTFT_MF-WC7LOVPMdj9-44">
          <mxGeometry width="50" height="50" relative="1" as="geometry">
            <mxPoint x="400" y="460" as="sourcePoint" />
            <mxPoint x="580" y="440" as="targetPoint" />
            <Array as="points">
              <mxPoint x="735" y="460" />
            </Array>
          </mxGeometry>
        </mxCell>
        <mxCell id="RKTFT_MF-WC7LOVPMdj9-61" value="Inputs" style="rounded=0;whiteSpace=wrap;html=1;" vertex="1" parent="1">
          <mxGeometry x="520" y="190" width="50" height="80" as="geometry" />
        </mxCell>
        <mxCell id="RKTFT_MF-WC7LOVPMdj9-62" value="Weights" style="rounded=0;whiteSpace=wrap;html=1;" vertex="1" parent="1">
          <mxGeometry x="590" y="190" width="50" height="80" as="geometry" />
        </mxCell>
        <mxCell id="RKTFT_MF-WC7LOVPMdj9-63" value="Outputs" style="rounded=0;whiteSpace=wrap;html=1;" vertex="1" parent="1">
          <mxGeometry x="720" y="190" width="50" height="80" as="geometry" />
        </mxCell>
        <mxCell id="RKTFT_MF-WC7LOVPMdj9-65" value="&lt;div&gt;Bias&lt;/div&gt;&lt;div&gt;FIFO&lt;br&gt;&lt;/div&gt;" style="rounded=0;whiteSpace=wrap;html=1;" vertex="1" parent="1">
          <mxGeometry x="660" y="190" width="40" height="80" as="geometry" />
        </mxCell>
        <mxCell id="RKTFT_MF-WC7LOVPMdj9-67" value="" style="endArrow=classic;html=1;rounded=0;entryX=0.5;entryY=0;entryDx=0;entryDy=0;" edge="1" parent="1" target="RKTFT_MF-WC7LOVPMdj9-42">
          <mxGeometry width="50" height="50" relative="1" as="geometry">
            <mxPoint x="560" y="310" as="sourcePoint" />
            <mxPoint x="490" y="300" as="targetPoint" />
          </mxGeometry>
        </mxCell>
        <mxCell id="RKTFT_MF-WC7LOVPMdj9-69" value="" style="endArrow=none;html=1;rounded=0;entryX=0.5;entryY=1;entryDx=0;entryDy=0;" edge="1" parent="1" target="RKTFT_MF-WC7LOVPMdj9-61">
          <mxGeometry width="50" height="50" relative="1" as="geometry">
            <mxPoint x="560" y="310" as="sourcePoint" />
            <mxPoint x="490" y="300" as="targetPoint" />
            <Array as="points">
              <mxPoint x="545" y="310" />
            </Array>
          </mxGeometry>
        </mxCell>
        <mxCell id="RKTFT_MF-WC7LOVPMdj9-70" value="" style="endArrow=none;html=1;rounded=0;entryX=0.25;entryY=1;entryDx=0;entryDy=0;" edge="1" parent="1" target="RKTFT_MF-WC7LOVPMdj9-62">
          <mxGeometry width="50" height="50" relative="1" as="geometry">
            <mxPoint x="560" y="310" as="sourcePoint" />
            <mxPoint x="490" y="300" as="targetPoint" />
            <Array as="points">
              <mxPoint x="603" y="310" />
            </Array>
          </mxGeometry>
        </mxCell>
        <mxCell id="RKTFT_MF-WC7LOVPMdj9-71" value="" style="endArrow=classic;html=1;rounded=0;exitX=0.75;exitY=1;exitDx=0;exitDy=0;entryX=0.5;entryY=0;entryDx=0;entryDy=0;" edge="1" parent="1" source="RKTFT_MF-WC7LOVPMdj9-62" target="RKTFT_MF-WC7LOVPMdj9-43">
          <mxGeometry width="50" height="50" relative="1" as="geometry">
            <mxPoint x="440" y="350" as="sourcePoint" />
            <mxPoint x="490" y="300" as="targetPoint" />
            <Array as="points">
              <mxPoint x="628" y="310" />
              <mxPoint x="655" y="310" />
            </Array>
          </mxGeometry>
        </mxCell>
        <mxCell id="RKTFT_MF-WC7LOVPMdj9-72" value="" style="endArrow=classic;html=1;rounded=0;exitX=0.75;exitY=1;exitDx=0;exitDy=0;entryX=0.5;entryY=0;entryDx=0;entryDy=0;" edge="1" parent="1" target="RKTFT_MF-WC7LOVPMdj9-44">
          <mxGeometry width="50" height="50" relative="1" as="geometry">
            <mxPoint x="683" y="270" as="sourcePoint" />
            <mxPoint x="710" y="355" as="targetPoint" />
            <Array as="points">
              <mxPoint x="683" y="310" />
              <mxPoint x="735" y="310" />
            </Array>
          </mxGeometry>
        </mxCell>
        <mxCell id="RKTFT_MF-WC7LOVPMdj9-73" value="" style="endArrow=classic;html=1;rounded=0;entryX=0.5;entryY=1;entryDx=0;entryDy=0;" edge="1" parent="1" target="RKTFT_MF-WC7LOVPMdj9-63">
          <mxGeometry width="50" height="50" relative="1" as="geometry">
            <mxPoint x="710" y="460" as="sourcePoint" />
            <mxPoint x="490" y="300" as="targetPoint" />
            <Array as="points">
              <mxPoint x="770" y="460" />
              <mxPoint x="770" y="310" />
              <mxPoint x="745" y="310" />
            </Array>
          </mxGeometry>
        </mxCell>
        <mxCell id="RKTFT_MF-WC7LOVPMdj9-74" value="" style="endArrow=classic;html=1;rounded=0;exitX=0.5;exitY=0;exitDx=0;exitDy=0;entryX=1;entryY=0;entryDx=0;entryDy=0;" edge="1" parent="1" source="RKTFT_MF-WC7LOVPMdj9-63" target="RKTFT_MF-WC7LOVPMdj9-20">
          <mxGeometry width="50" height="50" relative="1" as="geometry">
            <mxPoint x="440" y="350" as="sourcePoint" />
            <mxPoint x="480" y="170" as="targetPoint" />
            <Array as="points">
              <mxPoint x="745" y="160" />
            </Array>
          </mxGeometry>
        </mxCell>
        <mxCell id="RKTFT_MF-WC7LOVPMdj9-76" value="" style="endArrow=classic;html=1;rounded=0;entryX=0.5;entryY=0;entryDx=0;entryDy=0;exitX=1;exitY=0.25;exitDx=0;exitDy=0;" edge="1" parent="1" source="RKTFT_MF-WC7LOVPMdj9-20" target="RKTFT_MF-WC7LOVPMdj9-65">
          <mxGeometry width="50" height="50" relative="1" as="geometry">
            <mxPoint x="440" y="350" as="sourcePoint" />
            <mxPoint x="490" y="300" as="targetPoint" />
            <Array as="points">
              <mxPoint x="680" y="173" />
            </Array>
          </mxGeometry>
        </mxCell>
        <mxCell id="RKTFT_MF-WC7LOVPMdj9-77" value="" style="endArrow=classic;html=1;rounded=0;entryX=0.5;entryY=0;entryDx=0;entryDy=0;" edge="1" parent="1" target="RKTFT_MF-WC7LOVPMdj9-62">
          <mxGeometry width="50" height="50" relative="1" as="geometry">
            <mxPoint x="615" y="173" as="sourcePoint" />
            <mxPoint x="490" y="300" as="targetPoint" />
          </mxGeometry>
        </mxCell>
        <mxCell id="RKTFT_MF-WC7LOVPMdj9-78" value="" style="endArrow=classic;html=1;rounded=0;entryX=0.5;entryY=0;entryDx=0;entryDy=0;" edge="1" parent="1">
          <mxGeometry width="50" height="50" relative="1" as="geometry">
            <mxPoint x="544.9300000000001" y="173" as="sourcePoint" />
            <mxPoint x="544.9300000000001" y="190" as="targetPoint" />
          </mxGeometry>
        </mxCell>
        <mxCell id="RKTFT_MF-WC7LOVPMdj9-79" value="DLA Output" style="text;html=1;align=center;verticalAlign=middle;whiteSpace=wrap;rounded=0;" vertex="1" parent="1">
          <mxGeometry x="600" y="460" width="100" height="30" as="geometry" />
        </mxCell>
        <mxCell id="RKTFT_MF-WC7LOVPMdj9-80" value="" style="endArrow=classic;html=1;rounded=0;entryX=0;entryY=0.5;entryDx=0;entryDy=0;exitX=1;exitY=0.5;exitDx=0;exitDy=0;" edge="1" parent="1" source="RKTFT_MF-WC7LOVPMdj9-31" target="RKTFT_MF-WC7LOVPMdj9-20">
          <mxGeometry width="50" height="50" relative="1" as="geometry">
            <mxPoint x="350" y="330" as="sourcePoint" />
            <mxPoint x="400" y="280" as="targetPoint" />
          </mxGeometry>
        </mxCell>
        <mxCell id="RKTFT_MF-WC7LOVPMdj9-81" value="" style="endArrow=classic;html=1;rounded=0;entryX=0;entryY=0.5;entryDx=0;entryDy=0;" edge="1" parent="1" target="RKTFT_MF-WC7LOVPMdj9-19">
          <mxGeometry width="50" height="50" relative="1" as="geometry">
            <mxPoint x="280" y="185" as="sourcePoint" />
            <mxPoint x="400" y="280" as="targetPoint" />
            <Array as="points">
              <mxPoint x="280" y="235" />
            </Array>
          </mxGeometry>
        </mxCell>
      </root>
    </mxGraphModel>
  </diagram>
</mxfile>
